<svg width="47" height="47" viewBox="0 0 47 47" fill="none" xmlns="http://www.w3.org/2000/svg">
<path d="M23.5012 10.0318H16.8172C16.2263 10.0318 15.6596 10.2665 15.2417 10.6843C14.824 11.1022 14.5892 11.6689 14.5892 12.2598V34.5398C14.5892 35.1307 14.824 35.6975 15.2417 36.1152C15.6596 36.5331 16.2263 36.7679 16.8172 36.7679C17.4081 36.7679 17.9749 36.5331 18.3926 36.1152C18.8105 35.6975 19.0453 35.1307 19.0453 34.5398V27.8558H23.5012C25.8649 27.8558 28.1317 26.9169 29.803 25.2456C31.4743 23.5742 32.4133 21.3073 32.4133 18.9438C32.4133 16.5802 31.4743 14.3134 29.803 12.642C28.1317 10.9707 25.8649 10.0318 23.5012 10.0318ZM23.5012 23.3998H19.0453V14.4878H23.5012C24.6831 14.4878 25.8164 14.9572 26.6521 15.7929C27.4878 16.6285 27.9573 17.762 27.9573 18.9438C27.9573 20.1256 27.4878 21.259 26.6521 22.0947C25.8164 22.9303 24.6831 23.3998 23.5012 23.3998ZM39.0973 1.11975H7.9052C6.13249 1.11975 4.4324 1.82396 3.17889 3.07745C1.9254 4.33095 1.22119 6.03105 1.22119 7.80377V38.9958C1.22119 40.7686 1.9254 42.4687 3.17889 43.7222C4.4324 44.9756 6.13249 45.6799 7.9052 45.6799H39.0973C40.87 45.6799 42.57 44.9756 43.8236 43.7222C45.0771 42.4687 45.7813 40.7686 45.7813 38.9958V7.80377C45.7813 6.03105 45.0771 4.33095 43.8236 3.07745C42.57 1.82396 40.87 1.11975 39.0973 1.11975ZM41.3253 38.9958C41.3253 39.5868 41.0906 40.1534 40.6727 40.5713C40.2549 40.9891 39.6882 41.2238 39.0973 41.2238H7.9052C7.3143 41.2238 6.74761 40.9891 6.32977 40.5713C5.91194 40.1534 5.6772 39.5868 5.6772 38.9958V7.80377C5.6772 7.21286 5.91194 6.64616 6.32977 6.22833C6.74761 5.8105 7.3143 5.57576 7.9052 5.57576H39.0973C39.6882 5.57576 40.2549 5.8105 40.6727 6.22833C41.0906 6.64616 41.3253 7.21286 41.3253 7.80377V38.9958Z"  fill="#25A75B"/>
</svg>
