<svg width="36" height="37" viewBox="0 0 36 37" fill="none" xmlns="http://www.w3.org/2000/svg">
<path d="M26.1891 27.8079C28.6144 25.5476 30.0424 22.4165 30.159 19.1033C30.2757 15.7902 29.0714 12.5664 26.8111 10.1412C24.5509 7.71593 21.4197 6.28792 18.1066 6.17127C14.7934 6.05462 11.5696 7.2589 9.14441 9.51917C6.71917 11.7794 5.29116 14.9106 5.17451 18.2237C5.05787 21.5369 6.26214 24.7607 8.52241 27.1859C10.7827 29.6111 13.9138 31.0391 17.227 31.1558C20.5401 31.2724 23.7639 30.0682 26.1891 27.8079V27.8079ZM14.1988 22.9636C14.0472 23.1049 13.8457 23.1801 13.6386 23.1728C13.4316 23.1655 13.2359 23.0763 13.0946 22.9247C12.9533 22.7731 12.8781 22.5716 12.8853 22.3646C12.8926 22.1575 12.9819 21.9618 13.1335 21.8205L19.7551 15.6493L15.0149 15.4835C14.9122 15.4799 14.8113 15.4561 14.7178 15.4135C14.6244 15.3708 14.5402 15.3102 14.4702 15.2351C14.4001 15.1599 14.3456 15.0717 14.3096 14.9755C14.2737 14.8793 14.257 14.7769 14.2607 14.6742C14.2643 14.5716 14.2881 14.4706 14.3307 14.3772C14.3733 14.2837 14.4339 14.1995 14.5091 14.1295C14.5842 14.0595 14.6724 14.0049 14.7687 13.969C14.8649 13.933 14.9673 13.9164 15.0699 13.92L21.695 14.1532C21.7977 14.1567 21.8987 14.1804 21.9922 14.223C22.0857 14.2656 22.1699 14.3262 22.24 14.4014C22.31 14.4766 22.3646 14.5648 22.4005 14.6611C22.4364 14.7574 22.4529 14.8598 22.4492 14.9625L22.2159 21.5875C22.2086 21.7949 22.1193 21.9908 21.9675 22.1323C21.8157 22.2737 21.614 22.3491 21.4067 22.3418C21.1993 22.3345 21.0034 22.2451 20.8619 22.0933C20.7205 21.9416 20.6451 21.7398 20.6524 21.5325L20.8204 16.7923L14.1988 22.9636Z" fill="#00897b" />
</svg>
