<svg width="64" height="64" viewBox="0 0 64 64" fill="none" xmlns="http://www.w3.org/2000/svg">
<g filter="url(#filter0_d_696:9359)">
<circle cx="26.9994" cy="27" r="17" fill="red"/>
</g>
<path d="M38.6641 39.5355C42.0594 36.3711 44.0466 31.9747 44.1886 27.3133C44.3305 22.652 42.6155 18.1076 39.4209 14.6798C36.2263 11.2521 31.8138 9.22175 27.154 9.03552C22.4942 8.84929 17.9689 10.5224 14.5736 13.6868C11.1782 16.8512 9.19103 21.2476 9.04909 25.9089C8.90716 30.5703 10.6221 35.1147 13.8167 38.5424C17.0113 41.9702 21.4239 44.0005 26.0837 44.1868C30.7434 44.373 35.2688 42.6999 38.6641 39.5355V39.5355ZM21.7707 32.6389C21.5585 32.8366 21.2757 32.9412 20.9845 32.9296C20.6932 32.9179 20.4174 32.791 20.2178 32.5768C20.0181 32.3626 19.9109 32.0785 19.9198 31.7872C19.9287 31.4959 20.0529 31.2211 20.2651 31.0233L29.5354 22.3836L22.8685 22.1187C22.7241 22.1129 22.582 22.0787 22.4503 22.0181C22.3186 21.9575 22.1998 21.8717 22.1008 21.7654C22.0019 21.6592 21.9246 21.5347 21.8734 21.3991C21.8222 21.2634 21.7981 21.1193 21.8025 20.9748C21.8069 20.8304 21.8397 20.6885 21.899 20.5573C21.9583 20.4261 22.043 20.3081 22.1482 20.21C22.2534 20.1119 22.3771 20.0358 22.5122 19.9858C22.6472 19.9359 22.7911 19.9132 22.9355 19.9189L32.2532 20.2913C32.3977 20.2969 32.5399 20.331 32.6717 20.3915C32.8035 20.452 32.9223 20.5379 33.0213 20.6441C33.1203 20.7504 33.1976 20.875 33.2487 21.0107C33.2999 21.1464 33.3238 21.2906 33.3192 21.4351L33.0354 30.756C33.0265 31.0477 32.9022 31.3228 32.6897 31.5209C32.4772 31.7189 32.194 31.8236 31.9024 31.8119C31.6108 31.8003 31.3347 31.6732 31.1348 31.4587C30.9349 31.2442 30.8276 30.9598 30.8364 30.6681L31.0411 23.9991L21.7707 32.6389Z" fill="#25A75B"/>
<defs>
<filter id="filter0_d_696:9359" x="-0.000610352" y="0" width="64" height="64" filterUnits="userSpaceOnUse" color-interpolation-filters="sRGB">
<feFlood flood-opacity="0" result="BackgroundImageFix"/>
<feColorMatrix in="SourceAlpha" type="matrix" values="0 0 0 0 0 0 0 0 0 0 0 0 0 0 0 0 0 0 127 0" result="hardAlpha"/>
<feOffset dx="5" dy="5"/>
<feGaussianBlur stdDeviation="7.5"/>
<feColorMatrix type="matrix" values="0 0 0 0 0 0 0 0 0 0 0 0 0 0 0 0 0 0 0.25 0"/>
<feBlend mode="normal" in2="BackgroundImageFix" result="effect1_dropShadow_696:9359"/>
<feBlend mode="normal" in="SourceGraphic" in2="effect1_dropShadow_696:9359" result="shape"/>
</filter>
</defs>
</svg>
